# xmcd CD database file
#
# Track frame offsets:
#	182
#	15590
#	46157
#	80517
#	110402
#	124772
#
# Disc length: 1953 seconds
#
# Revision: 2
# Processed by: cddbd v1.5.1PL2 Copyright (c) Steve Scherf et al.
# Submitted via: CDex 1.51
#
DISCID=40079f06
DTITLE=Bill Evans and Jim Hall - Intermodulation
DYEAR=1966
DGENRE=Jazz
TTITLE0=I've Got You Under My Skin
TTITLE1=My Man's Gone Now
TTITLE2=Turn Out The Stars
TTITLE3=Angel Face
TTITLE4=Jazz Samba
TTITLE5=All Across The City
EXTD=YEAR: 1966
EXTT0=
EXTT1=
EXTT2=
EXTT3=
EXTT4=
EXTT5=
PLAYORDER=
